<mxfile host="app.diagrams.net" agent="Mozilla/5.0 (X11; Linux x86_64; rv:109.0) Gecko/20100101 Firefox/115.0" version="24.7.14">
  <diagram name="Page-1" id="bhGO4YqVL-GR8HQGPJSJ">
    <mxGraphModel dx="736" dy="1480" grid="1" gridSize="10" guides="1" tooltips="1" connect="1" arrows="1" fold="1" page="1" pageScale="1" pageWidth="850" pageHeight="1100" math="0" shadow="0">
      <root>
        <mxCell id="0" />
        <mxCell id="1" parent="0" />
        <mxCell id="naTFx3P3gocJp3Rw6-RB-1" value="Admin" style="shape=umlActor;verticalLabelPosition=bottom;verticalAlign=top;html=1;outlineConnect=0;fillColor=#e1d5e7;strokeColor=#9673a6;" parent="1" vertex="1">
          <mxGeometry x="30" y="260" width="60" height="120" as="geometry" />
        </mxCell>
        <mxCell id="naTFx3P3gocJp3Rw6-RB-2" value="" style="swimlane;startSize=0;" parent="1" vertex="1">
          <mxGeometry x="190" width="980" height="1650" as="geometry" />
        </mxCell>
        <mxCell id="naTFx3P3gocJp3Rw6-RB-3" value="S&#39;authentifier" style="ellipse;whiteSpace=wrap;html=1;fillColor=#cdeb8b;strokeColor=#36393d;" parent="naTFx3P3gocJp3Rw6-RB-2" vertex="1">
          <mxGeometry x="740" y="348.45" width="210" height="70" as="geometry" />
        </mxCell>
        <mxCell id="naTFx3P3gocJp3Rw6-RB-9" value="Visualiser le tableau de bord" style="ellipse;whiteSpace=wrap;html=1;" parent="naTFx3P3gocJp3Rw6-RB-2" vertex="1">
          <mxGeometry x="60" y="180" width="140" height="70" as="geometry" />
        </mxCell>
        <mxCell id="naTFx3P3gocJp3Rw6-RB-22" value="" style="endArrow=none;html=1;rounded=0;" parent="naTFx3P3gocJp3Rw6-RB-2" target="naTFx3P3gocJp3Rw6-RB-9" edge="1">
          <mxGeometry relative="1" as="geometry">
            <mxPoint x="-80" y="250" as="sourcePoint" />
            <mxPoint x="63.31878123554907" y="135.77861966851103" as="targetPoint" />
          </mxGeometry>
        </mxCell>
        <mxCell id="naTFx3P3gocJp3Rw6-RB-24" value="&amp;lt;&amp;lt;include&amp;gt;&amp;gt;" style="endArrow=open;endSize=12;dashed=1;html=1;rounded=0;exitX=1;exitY=0.4;exitDx=0;exitDy=0;exitPerimeter=0;entryX=0.167;entryY=0.89;entryDx=0;entryDy=0;entryPerimeter=0;" parent="naTFx3P3gocJp3Rw6-RB-2" source="naTFx3P3gocJp3Rw6-RB-23" target="naTFx3P3gocJp3Rw6-RB-3" edge="1">
          <mxGeometry width="160" relative="1" as="geometry">
            <mxPoint x="170" y="522" as="sourcePoint" />
            <mxPoint x="384" y="290" as="targetPoint" />
          </mxGeometry>
        </mxCell>
        <mxCell id="naTFx3P3gocJp3Rw6-RB-47" value="&amp;lt;&amp;lt;include&amp;gt;&amp;gt;" style="endArrow=open;endSize=12;dashed=1;html=1;rounded=0;entryX=0.37;entryY=0.993;entryDx=0;entryDy=0;entryPerimeter=0;exitX=0.981;exitY=0.346;exitDx=0;exitDy=0;exitPerimeter=0;" parent="naTFx3P3gocJp3Rw6-RB-2" target="naTFx3P3gocJp3Rw6-RB-3" edge="1" source="naTFx3P3gocJp3Rw6-RB-36">
          <mxGeometry width="160" relative="1" as="geometry">
            <mxPoint x="200" y="880" as="sourcePoint" />
            <mxPoint x="460" y="290" as="targetPoint" />
          </mxGeometry>
        </mxCell>
        <mxCell id="naTFx3P3gocJp3Rw6-RB-32" value="&amp;lt;&amp;lt;include&amp;gt;&amp;gt;" style="endArrow=open;endSize=12;dashed=1;html=1;rounded=0;exitX=1;exitY=0.5;exitDx=0;exitDy=0;" parent="naTFx3P3gocJp3Rw6-RB-2" source="naTFx3P3gocJp3Rw6-RB-14" target="naTFx3P3gocJp3Rw6-RB-3" edge="1">
          <mxGeometry width="160" relative="1" as="geometry">
            <mxPoint x="221" y="563" as="sourcePoint" />
            <mxPoint x="430" y="218" as="targetPoint" />
          </mxGeometry>
        </mxCell>
        <mxCell id="naTFx3P3gocJp3Rw6-RB-61" value="Supprimer un admin" style="ellipse;whiteSpace=wrap;html=1;" parent="naTFx3P3gocJp3Rw6-RB-2" vertex="1">
          <mxGeometry x="70" y="1380" width="140" height="70" as="geometry" />
        </mxCell>
        <mxCell id="naTFx3P3gocJp3Rw6-RB-70" value="&amp;lt;&amp;lt;include&amp;gt;&amp;gt;" style="endArrow=open;endSize=12;dashed=1;html=1;rounded=0;exitX=1.017;exitY=0.438;exitDx=0;exitDy=0;entryX=0.935;entryY=0.776;entryDx=0;entryDy=0;exitPerimeter=0;entryPerimeter=0;" parent="naTFx3P3gocJp3Rw6-RB-2" source="naTFx3P3gocJp3Rw6-RB-61" target="naTFx3P3gocJp3Rw6-RB-3" edge="1">
          <mxGeometry width="160" relative="1" as="geometry">
            <mxPoint x="220" y="1525" as="sourcePoint" />
            <mxPoint x="563" y="212" as="targetPoint" />
          </mxGeometry>
        </mxCell>
        <mxCell id="naTFx3P3gocJp3Rw6-RB-14" value="Consulter les produits" style="ellipse;whiteSpace=wrap;html=1;" parent="naTFx3P3gocJp3Rw6-RB-2" vertex="1">
          <mxGeometry x="70.5" y="389.99999999999994" width="140" height="70" as="geometry" />
        </mxCell>
        <mxCell id="naTFx3P3gocJp3Rw6-RB-15" value="Contacter super admin" style="ellipse;whiteSpace=wrap;html=1;" parent="naTFx3P3gocJp3Rw6-RB-2" vertex="1">
          <mxGeometry x="70.5" y="499.99999999999994" width="140" height="70" as="geometry" />
        </mxCell>
        <mxCell id="naTFx3P3gocJp3Rw6-RB-16" value="" style="endArrow=none;html=1;rounded=0;entryX=0.015;entryY=0.389;entryDx=0;entryDy=0;entryPerimeter=0;" parent="naTFx3P3gocJp3Rw6-RB-2" edge="1" target="naTFx3P3gocJp3Rw6-RB-14">
          <mxGeometry relative="1" as="geometry">
            <mxPoint x="-80" y="290" as="sourcePoint" />
            <mxPoint x="70.5" y="482.8000000000002" as="targetPoint" />
          </mxGeometry>
        </mxCell>
        <mxCell id="naTFx3P3gocJp3Rw6-RB-17" value="" style="endArrow=none;html=1;rounded=0;entryX=0.059;entryY=0.286;entryDx=0;entryDy=0;entryPerimeter=0;" parent="naTFx3P3gocJp3Rw6-RB-2" edge="1" target="naTFx3P3gocJp3Rw6-RB-15">
          <mxGeometry relative="1" as="geometry">
            <mxPoint x="-80" y="310" as="sourcePoint" />
            <mxPoint x="70.5" y="562.8000000000002" as="targetPoint" />
          </mxGeometry>
        </mxCell>
        <mxCell id="naTFx3P3gocJp3Rw6-RB-23" value="Supprimer&amp;nbsp;son compte" style="ellipse;whiteSpace=wrap;html=1;" parent="naTFx3P3gocJp3Rw6-RB-2" vertex="1">
          <mxGeometry x="70" y="582.2" width="140" height="70" as="geometry" />
        </mxCell>
        <mxCell id="naTFx3P3gocJp3Rw6-RB-38" value="Ajouter une catégorie" style="ellipse;whiteSpace=wrap;html=1;" parent="naTFx3P3gocJp3Rw6-RB-2" vertex="1">
          <mxGeometry x="70" y="980" width="140" height="70" as="geometry" />
        </mxCell>
        <mxCell id="ZiRu1ya_WraAcEEnrFVZ-2" value="Supprimer un store" style="ellipse;whiteSpace=wrap;html=1;" vertex="1" parent="naTFx3P3gocJp3Rw6-RB-2">
          <mxGeometry x="60" y="279.99999999999994" width="140" height="70" as="geometry" />
        </mxCell>
        <mxCell id="naTFx3P3gocJp3Rw6-RB-33" value="Manager son profil" style="ellipse;whiteSpace=wrap;html=1;" parent="naTFx3P3gocJp3Rw6-RB-2" vertex="1">
          <mxGeometry x="70" y="660" width="140" height="70" as="geometry" />
        </mxCell>
        <mxCell id="naTFx3P3gocJp3Rw6-RB-35" value="Ajouter un businessOwner" style="ellipse;whiteSpace=wrap;html=1;" parent="naTFx3P3gocJp3Rw6-RB-2" vertex="1">
          <mxGeometry x="70" y="740" width="140" height="70" as="geometry" />
        </mxCell>
        <mxCell id="naTFx3P3gocJp3Rw6-RB-49" value="&amp;lt;&amp;lt;include&amp;gt;&amp;gt;" style="endArrow=open;endSize=12;dashed=1;html=1;rounded=0;entryX=0.293;entryY=0.956;entryDx=0;entryDy=0;entryPerimeter=0;exitX=1;exitY=0.5;exitDx=0;exitDy=0;" parent="naTFx3P3gocJp3Rw6-RB-2" source="naTFx3P3gocJp3Rw6-RB-35" target="naTFx3P3gocJp3Rw6-RB-3" edge="1">
          <mxGeometry width="160" relative="1" as="geometry">
            <mxPoint x="240" y="818" as="sourcePoint" />
            <mxPoint x="490" y="237" as="targetPoint" />
          </mxGeometry>
        </mxCell>
        <mxCell id="naTFx3P3gocJp3Rw6-RB-36" value="Supprimer un businessOwner" style="ellipse;whiteSpace=wrap;html=1;" parent="naTFx3P3gocJp3Rw6-RB-2" vertex="1">
          <mxGeometry x="70" y="820" width="140" height="70" as="geometry" />
        </mxCell>
        <mxCell id="naTFx3P3gocJp3Rw6-RB-37" value="Ajouter un admin" style="ellipse;whiteSpace=wrap;html=1;" parent="naTFx3P3gocJp3Rw6-RB-2" vertex="1">
          <mxGeometry x="70" y="900" width="140" height="70" as="geometry" />
        </mxCell>
        <mxCell id="naTFx3P3gocJp3Rw6-RB-39" value="Supprimer une catégorie" style="ellipse;whiteSpace=wrap;html=1;" parent="naTFx3P3gocJp3Rw6-RB-2" vertex="1">
          <mxGeometry x="70" y="1060" width="140" height="70" as="geometry" />
        </mxCell>
        <mxCell id="naTFx3P3gocJp3Rw6-RB-40" value="Créer un offre" style="ellipse;whiteSpace=wrap;html=1;" parent="naTFx3P3gocJp3Rw6-RB-2" vertex="1">
          <mxGeometry x="70" y="1140" width="140" height="70" as="geometry" />
        </mxCell>
        <mxCell id="naTFx3P3gocJp3Rw6-RB-41" value="Modifier un offre" style="ellipse;whiteSpace=wrap;html=1;" parent="naTFx3P3gocJp3Rw6-RB-2" vertex="1">
          <mxGeometry x="70" y="1220" width="140" height="70" as="geometry" />
        </mxCell>
        <mxCell id="naTFx3P3gocJp3Rw6-RB-42" value="Supprimer&amp;nbsp; un offre" style="ellipse;whiteSpace=wrap;html=1;" parent="naTFx3P3gocJp3Rw6-RB-2" vertex="1">
          <mxGeometry x="70" y="1300" width="140" height="70" as="geometry" />
        </mxCell>
        <mxCell id="ZiRu1ya_WraAcEEnrFVZ-3" value="" style="endArrow=none;html=1;rounded=0;entryX=0;entryY=0.5;entryDx=0;entryDy=0;" edge="1" parent="naTFx3P3gocJp3Rw6-RB-2" target="ZiRu1ya_WraAcEEnrFVZ-2">
          <mxGeometry relative="1" as="geometry">
            <mxPoint x="-80" y="270" as="sourcePoint" />
            <mxPoint x="80.5" y="412.79999999999995" as="targetPoint" />
          </mxGeometry>
        </mxCell>
        <mxCell id="naTFx3P3gocJp3Rw6-RB-48" value="&amp;lt;&amp;lt;include&amp;gt;&amp;gt;" style="endArrow=open;endSize=12;dashed=1;html=1;rounded=0;exitX=0.976;exitY=0.353;exitDx=0;exitDy=0;exitPerimeter=0;entryX=0.231;entryY=0.931;entryDx=0;entryDy=0;entryPerimeter=0;" parent="naTFx3P3gocJp3Rw6-RB-2" source="naTFx3P3gocJp3Rw6-RB-33" target="naTFx3P3gocJp3Rw6-RB-3" edge="1">
          <mxGeometry width="160" relative="1" as="geometry">
            <mxPoint x="200.0000000000025" y="724.73" as="sourcePoint" />
            <mxPoint x="820" y="420" as="targetPoint" />
          </mxGeometry>
        </mxCell>
        <mxCell id="naTFx3P3gocJp3Rw6-RB-50" value="&amp;lt;&amp;lt;include&amp;gt;&amp;gt;" style="endArrow=open;endSize=12;dashed=1;html=1;rounded=0;exitX=0.987;exitY=0.414;exitDx=0;exitDy=0;exitPerimeter=0;entryX=0.452;entryY=1.018;entryDx=0;entryDy=0;entryPerimeter=0;" parent="naTFx3P3gocJp3Rw6-RB-2" source="naTFx3P3gocJp3Rw6-RB-37" target="naTFx3P3gocJp3Rw6-RB-3" edge="1">
          <mxGeometry width="160" relative="1" as="geometry">
            <mxPoint x="270" y="1001" as="sourcePoint" />
            <mxPoint x="520" y="420" as="targetPoint" />
          </mxGeometry>
        </mxCell>
        <mxCell id="naTFx3P3gocJp3Rw6-RB-54" value="&amp;lt;&amp;lt;include&amp;gt;&amp;gt;" style="endArrow=open;endSize=12;dashed=1;html=1;rounded=0;entryX=0.612;entryY=1.03;entryDx=0;entryDy=0;entryPerimeter=0;exitX=0.932;exitY=0.271;exitDx=0;exitDy=0;exitPerimeter=0;" parent="naTFx3P3gocJp3Rw6-RB-2" source="naTFx3P3gocJp3Rw6-RB-40" target="naTFx3P3gocJp3Rw6-RB-3" edge="1">
          <mxGeometry width="160" relative="1" as="geometry">
            <mxPoint x="220" y="1285" as="sourcePoint" />
            <mxPoint x="519" y="230" as="targetPoint" />
          </mxGeometry>
        </mxCell>
        <mxCell id="naTFx3P3gocJp3Rw6-RB-55" value="&amp;lt;&amp;lt;include&amp;gt;&amp;gt;" style="endArrow=open;endSize=12;dashed=1;html=1;rounded=0;entryX=0.698;entryY=0.972;entryDx=0;entryDy=0;exitX=1;exitY=0.5;exitDx=0;exitDy=0;entryPerimeter=0;" parent="naTFx3P3gocJp3Rw6-RB-2" source="naTFx3P3gocJp3Rw6-RB-41" target="naTFx3P3gocJp3Rw6-RB-3" edge="1">
          <mxGeometry width="160" relative="1" as="geometry">
            <mxPoint x="220" y="1365" as="sourcePoint" />
            <mxPoint x="529" y="240" as="targetPoint" />
          </mxGeometry>
        </mxCell>
        <mxCell id="naTFx3P3gocJp3Rw6-RB-56" value="&amp;lt;&amp;lt;include&amp;gt;&amp;gt;" style="endArrow=open;endSize=12;dashed=1;html=1;rounded=0;exitX=1;exitY=0.5;exitDx=0;exitDy=0;entryX=0.775;entryY=0.939;entryDx=0;entryDy=0;exitPerimeter=0;entryPerimeter=0;" parent="naTFx3P3gocJp3Rw6-RB-2" source="naTFx3P3gocJp3Rw6-RB-42" target="naTFx3P3gocJp3Rw6-RB-3" edge="1">
          <mxGeometry width="160" relative="1" as="geometry">
            <mxPoint x="230" y="1375" as="sourcePoint" />
            <mxPoint x="539" y="250" as="targetPoint" />
          </mxGeometry>
        </mxCell>
        <mxCell id="ZiRu1ya_WraAcEEnrFVZ-8" value="&amp;lt;&amp;lt;include&amp;gt;&amp;gt;" style="endArrow=open;endSize=12;dashed=1;html=1;rounded=0;exitX=1;exitY=0.5;exitDx=0;exitDy=0;entryX=0.5;entryY=0;entryDx=0;entryDy=0;" edge="1" parent="naTFx3P3gocJp3Rw6-RB-2" target="naTFx3P3gocJp3Rw6-RB-3">
          <mxGeometry width="160" relative="1" as="geometry">
            <mxPoint x="194.5" y="207.5" as="sourcePoint" />
            <mxPoint x="785.5" y="222.5" as="targetPoint" />
          </mxGeometry>
        </mxCell>
        <mxCell id="ZiRu1ya_WraAcEEnrFVZ-9" value="&amp;lt;&amp;lt;include&amp;gt;&amp;gt;" style="endArrow=open;endSize=12;dashed=1;html=1;rounded=0;entryX=0.296;entryY=0.997;entryDx=0;entryDy=0;entryPerimeter=0;" edge="1" parent="naTFx3P3gocJp3Rw6-RB-2" source="ZiRu1ya_WraAcEEnrFVZ-2">
          <mxGeometry width="160" relative="1" as="geometry">
            <mxPoint x="200" y="335" as="sourcePoint" />
            <mxPoint x="791" y="350" as="targetPoint" />
          </mxGeometry>
        </mxCell>
        <mxCell id="ZiRu1ya_WraAcEEnrFVZ-10" value="&amp;lt;&amp;lt;include&amp;gt;&amp;gt;" style="endArrow=open;endSize=12;dashed=1;html=1;rounded=0;exitX=0.99;exitY=0.464;exitDx=0;exitDy=0;exitPerimeter=0;entryX=0.094;entryY=0.836;entryDx=0;entryDy=0;entryPerimeter=0;" edge="1" parent="naTFx3P3gocJp3Rw6-RB-2" source="naTFx3P3gocJp3Rw6-RB-15" target="naTFx3P3gocJp3Rw6-RB-3">
          <mxGeometry width="160" relative="1" as="geometry">
            <mxPoint x="190" y="565" as="sourcePoint" />
            <mxPoint x="800" y="420" as="targetPoint" />
          </mxGeometry>
        </mxCell>
        <mxCell id="ZiRu1ya_WraAcEEnrFVZ-12" value="&amp;lt;&amp;lt;include&amp;gt;&amp;gt;" style="endArrow=open;endSize=12;dashed=1;html=1;rounded=0;exitX=0.981;exitY=0.296;exitDx=0;exitDy=0;exitPerimeter=0;" edge="1" parent="naTFx3P3gocJp3Rw6-RB-2" source="naTFx3P3gocJp3Rw6-RB-38">
          <mxGeometry width="160" relative="1" as="geometry">
            <mxPoint x="210.5" y="1039" as="sourcePoint" />
            <mxPoint x="838" y="420" as="targetPoint" />
          </mxGeometry>
        </mxCell>
        <mxCell id="ZiRu1ya_WraAcEEnrFVZ-13" value="&amp;lt;&amp;lt;include&amp;gt;&amp;gt;" style="endArrow=open;endSize=12;dashed=1;html=1;rounded=0;exitX=0.932;exitY=0.309;exitDx=0;exitDy=0;exitPerimeter=0;entryX=0.538;entryY=0.991;entryDx=0;entryDy=0;entryPerimeter=0;" edge="1" parent="naTFx3P3gocJp3Rw6-RB-2" source="naTFx3P3gocJp3Rw6-RB-39" target="naTFx3P3gocJp3Rw6-RB-3">
          <mxGeometry width="160" relative="1" as="geometry">
            <mxPoint x="200" y="1109" as="sourcePoint" />
            <mxPoint x="827" y="570" as="targetPoint" />
          </mxGeometry>
        </mxCell>
        <mxCell id="naTFx3P3gocJp3Rw6-RB-28" value="&lt;b&gt;&lt;font style=&quot;font-size: 15px;&quot; color=&quot;#1a5fb4&quot;&gt;Use Case Admin Annuaire digitale d&#39;entreprises&lt;/font&gt;&lt;/b&gt;" style="text;html=1;align=center;verticalAlign=middle;resizable=0;points=[];autosize=1;strokeColor=none;fillColor=none;" parent="1" vertex="1">
          <mxGeometry x="260" y="-40" width="370" height="30" as="geometry" />
        </mxCell>
        <mxCell id="naTFx3P3gocJp3Rw6-RB-57" value="SuperAdmin" style="shape=umlActor;verticalLabelPosition=bottom;verticalAlign=top;html=1;outlineConnect=0;fillColor=#e1d5e7;strokeColor=#9673a6;" parent="1" vertex="1">
          <mxGeometry x="25" y="1320" width="70" height="120" as="geometry" />
        </mxCell>
        <mxCell id="MQpW_G7_j-WZOAsa5cIW-2" value="" style="endArrow=block;endFill=0;html=1;rounded=0;strokeWidth=3;jumpSize=4;startSize=21;endSize=40;" parent="1" edge="1">
          <mxGeometry width="160" relative="1" as="geometry">
            <mxPoint x="60.05" y="1260" as="sourcePoint" />
            <mxPoint x="59.55" y="580" as="targetPoint" />
          </mxGeometry>
        </mxCell>
        <mxCell id="naTFx3P3gocJp3Rw6-RB-29" value="" style="endArrow=none;html=1;rounded=0;entryX=0.025;entryY=0.299;entryDx=0;entryDy=0;entryPerimeter=0;" parent="1" target="naTFx3P3gocJp3Rw6-RB-23" edge="1">
          <mxGeometry relative="1" as="geometry">
            <mxPoint x="103.98" y="320" as="sourcePoint" />
            <mxPoint x="243.98000000000002" y="765" as="targetPoint" />
          </mxGeometry>
        </mxCell>
        <mxCell id="naTFx3P3gocJp3Rw6-RB-34" value="" style="endArrow=none;html=1;rounded=0;entryX=0.024;entryY=0.286;entryDx=0;entryDy=0;entryPerimeter=0;" parent="1" target="naTFx3P3gocJp3Rw6-RB-33" edge="1">
          <mxGeometry relative="1" as="geometry">
            <mxPoint x="103.98" y="340" as="sourcePoint" />
            <mxPoint x="243.98000000000002" y="845" as="targetPoint" />
          </mxGeometry>
        </mxCell>
        <mxCell id="naTFx3P3gocJp3Rw6-RB-46" value="" style="endArrow=none;html=1;rounded=0;entryX=0.055;entryY=0.263;entryDx=0;entryDy=0;entryPerimeter=0;" parent="1" target="naTFx3P3gocJp3Rw6-RB-35" edge="1">
          <mxGeometry relative="1" as="geometry">
            <mxPoint x="103.98" y="380" as="sourcePoint" />
            <mxPoint x="243.98000000000002" y="925" as="targetPoint" />
          </mxGeometry>
        </mxCell>
        <mxCell id="naTFx3P3gocJp3Rw6-RB-45" value="" style="endArrow=none;html=1;rounded=0;entryX=0.1;entryY=0.207;entryDx=0;entryDy=0;entryPerimeter=0;" parent="1" target="naTFx3P3gocJp3Rw6-RB-36" edge="1">
          <mxGeometry relative="1" as="geometry">
            <mxPoint x="103.98" y="420" as="sourcePoint" />
            <mxPoint x="243.98000000000002" y="1005" as="targetPoint" />
          </mxGeometry>
        </mxCell>
        <mxCell id="naTFx3P3gocJp3Rw6-RB-44" value="" style="endArrow=none;html=1;rounded=0;entryX=0.036;entryY=0.293;entryDx=0;entryDy=0;entryPerimeter=0;" parent="1" target="naTFx3P3gocJp3Rw6-RB-37" edge="1">
          <mxGeometry relative="1" as="geometry">
            <mxPoint x="103.98" y="450" as="sourcePoint" />
            <mxPoint x="250.00000000000023" y="1095.9900000000002" as="targetPoint" />
          </mxGeometry>
        </mxCell>
        <mxCell id="naTFx3P3gocJp3Rw6-RB-43" value="" style="endArrow=none;html=1;rounded=0;entryX=0.039;entryY=0.308;entryDx=0;entryDy=0;entryPerimeter=0;" parent="1" target="naTFx3P3gocJp3Rw6-RB-38" edge="1">
          <mxGeometry relative="1" as="geometry">
            <mxPoint x="103.98" y="490" as="sourcePoint" />
            <mxPoint x="243.98000000000002" y="1165" as="targetPoint" />
          </mxGeometry>
        </mxCell>
        <mxCell id="naTFx3P3gocJp3Rw6-RB-63" value="" style="endArrow=none;html=1;rounded=0;entryX=0.077;entryY=0.241;entryDx=0;entryDy=0;entryPerimeter=0;" parent="1" target="naTFx3P3gocJp3Rw6-RB-39" edge="1">
          <mxGeometry relative="1" as="geometry">
            <mxPoint x="103.98" y="520" as="sourcePoint" />
            <mxPoint x="243.98000000000002" y="1245" as="targetPoint" />
          </mxGeometry>
        </mxCell>
        <mxCell id="naTFx3P3gocJp3Rw6-RB-64" value="" style="endArrow=none;html=1;rounded=0;entryX=0.014;entryY=0.357;entryDx=0;entryDy=0;entryPerimeter=0;" parent="1" target="naTFx3P3gocJp3Rw6-RB-40" edge="1">
          <mxGeometry relative="1" as="geometry">
            <mxPoint x="103.98" y="570" as="sourcePoint" />
            <mxPoint x="245.94000000000005" y="1318.5600000000004" as="targetPoint" />
          </mxGeometry>
        </mxCell>
        <mxCell id="naTFx3P3gocJp3Rw6-RB-65" value="" style="endArrow=none;html=1;rounded=0;entryX=0;entryY=0.5;entryDx=0;entryDy=0;" parent="1" target="naTFx3P3gocJp3Rw6-RB-41" edge="1">
          <mxGeometry relative="1" as="geometry">
            <mxPoint x="103.98" y="590" as="sourcePoint" />
            <mxPoint x="243.98000000000002" y="1405" as="targetPoint" />
          </mxGeometry>
        </mxCell>
        <mxCell id="naTFx3P3gocJp3Rw6-RB-66" value="" style="endArrow=none;html=1;rounded=0;entryX=0.005;entryY=0.543;entryDx=0;entryDy=0;entryPerimeter=0;" parent="1" target="naTFx3P3gocJp3Rw6-RB-42" edge="1">
          <mxGeometry relative="1" as="geometry">
            <mxPoint x="103.98" y="620" as="sourcePoint" />
            <mxPoint x="243.83999999999992" y="1482.7599999999998" as="targetPoint" />
          </mxGeometry>
        </mxCell>
        <mxCell id="naTFx3P3gocJp3Rw6-RB-67" value="" style="endArrow=none;html=1;edgeStyle=orthogonalEdgeStyle;rounded=0;" parent="1" edge="1">
          <mxGeometry relative="1" as="geometry">
            <mxPoint x="120" y="1420" as="sourcePoint" />
            <mxPoint x="260" y="1420" as="targetPoint" />
          </mxGeometry>
        </mxCell>
      </root>
    </mxGraphModel>
  </diagram>
</mxfile>
